<?xml version="1.0" standalone="no"?><!DOCTYPE svg PUBLIC "-//W3C//DTD SVG 1.1//EN" "http://www.w3.org/Graphics/SVG/1.1/DTD/svg11.dtd"><svg t="1574656364096" class="icon" viewBox="0 0 1024 1024" version="1.1" xmlns="http://www.w3.org/2000/svg" p-id="4187" xmlns:xlink="http://www.w3.org/1999/xlink" width="200" height="200"><defs><style type="text/css"></style></defs><path d="M358.2 557.6c-114.8 0-208.2-93.4-208.2-208.2s93.4-208.2 208.2-208.2 208.2 93.4 208.2 208.2S473 557.6 358.2 557.6z m0-336.3c-70.7 0-128.2 57.5-128.2 128.2 0 70.7 57.5 128.2 128.2 128.2s128.2-57.5 128.2-128.2c0-70.7-57.5-128.2-128.2-128.2zM673 1023c-22.1 0-40-17.9-40-40V806.6c0-72-58.6-130.6-130.6-130.6H214c-72 0-130.6 58.6-130.6 130.6V983c0 22.1-17.9 40-40 40s-40-17.9-40-40V806.6C3.4 690.5 97.9 596 214 596h288.4C618.5 596 713 690.5 713 806.6V983c0 22.1-17.9 40-40 40z" fill="" p-id="4188"></path><path d="M162.5 1023c-22.1 0-40-17.9-40-40v-81.9c0-22.1 17.9-40 40-40s40 17.9 40 40V983c0 22.1-17.9 40-40 40zM554 1023c-22.1 0-40-17.9-40-40v-81.9c0-22.1 17.9-40 40-40s40 17.9 40 40V983c0 22.1-17.9 40-40 40zM984.5 396.5h-337c-22.1 0-40-17.9-40-40s17.9-40 40-40h337c22.1 0 40 17.9 40 40s-17.9 40-40 40z" fill="" p-id="4189"></path><path d="M816 572c-22.1 0-40-17.9-40-40V181c0-22.1 17.9-40 40-40s40 17.9 40 40v351c0 22.1-17.9 40-40 40z" fill="" p-id="4190"></path></svg>