<?xml version="1.0" standalone="no"?><!DOCTYPE svg PUBLIC "-//W3C//DTD SVG 1.1//EN" "http://www.w3.org/Graphics/SVG/1.1/DTD/svg11.dtd"><svg t="1575606880119" class="icon" viewBox="0 0 1024 1024" version="1.1" xmlns="http://www.w3.org/2000/svg" p-id="2204" xmlns:xlink="http://www.w3.org/1999/xlink" width="200" height="200"><defs><style type="text/css"></style></defs><path d="M691.2 339.2c0-12.8-12.8-25.6-25.6-25.6H179.2c-12.8 0-25.6 12.8-25.6 25.6s12.8 25.6 25.6 25.6h486.4c12.8 0 25.6-12.8 25.6-25.6zM665.6 179.2H179.2c-19.2 0-25.6 12.8-25.6 25.6s12.8 25.6 25.6 25.6h486.4c12.8 0 25.6-12.8 25.6-25.6s-12.8-25.6-25.6-25.6zM166.4 454.4c-6.4 6.4-12.8 12.8-12.8 25.6s6.4 19.2 12.8 25.6c12.8 6.4 19.2 6.4 32 0 6.4-6.4 12.8-12.8 12.8-25.6s-6.4-19.2-12.8-25.6c-12.8-6.4-19.2-6.4-32 0zM275.2 454.4c-12.8 6.4-19.2 12.8-19.2 25.6s6.4 19.2 12.8 25.6c12.8 6.4 25.6 6.4 32 0 12.8-6.4 19.2-12.8 19.2-25.6s-6.4-19.2-12.8-25.6c-12.8-6.4-25.6-6.4-32 0zM377.6 454.4c-12.8 6.4-12.8 12.8-12.8 25.6s6.4 19.2 12.8 25.6c6.4 6.4 19.2 6.4 32 0 6.4-6.4 12.8-12.8 12.8-25.6s-6.4-19.2-12.8-25.6c-12.8-6.4-25.6-6.4-32 0z" p-id="2205"></path><path d="M537.6 870.4H102.4c-12.8 0-25.6-12.8-25.6-25.6V115.2c0-12.8 12.8-25.6 25.6-25.6H768c12.8 0 25.6 12.8 25.6 25.6v364.8c0 12.8 12.8 25.6 25.6 25.6s25.6-12.8 25.6-25.6V115.2c0-38.4-32-76.8-76.8-76.8H102.4C64 38.4 25.6 70.4 25.6 115.2v729.6c0 38.4 32 76.8 76.8 76.8h435.2c12.8 0 25.6-12.8 25.6-25.6s-12.8-25.6-25.6-25.6z" p-id="2206"></path><path d="M998.4 755.2v-38.4H896l89.6-166.4c6.4-12.8 0-25.6-19.2-25.6H896c-6.4 0-12.8 6.4-19.2 12.8l-51.2 102.4-51.2-102.4c-6.4-6.4-12.8-12.8-19.2-12.8h-70.4c-12.8 0-25.6 12.8-19.2 25.6l89.6 166.4h-102.4v38.4H768v83.2h-96v38.4H768V960c0 12.8 6.4 19.2 19.2 19.2h83.2c12.8 0 19.2-6.4 19.2-19.2v-83.2h96v-38.4h-96v-83.2h108.8z" p-id="2207"></path></svg>