<?xml version="1.0" standalone="no"?><!DOCTYPE svg PUBLIC "-//W3C//DTD SVG 1.1//EN" "http://www.w3.org/Graphics/SVG/1.1/DTD/svg11.dtd"><svg t="1577773025055" class="icon" viewBox="0 0 1024 1024" version="1.1" xmlns="http://www.w3.org/2000/svg" p-id="3097" xmlns:xlink="http://www.w3.org/1999/xlink" width="200" height="200"><defs><style type="text/css"></style></defs><path d="M512 189.184l402.336 278.56a24 24 0 1 0 27.328-39.488l-416-288a24 24 0 0 0-27.328 0l-416 288a24 24 0 1 0 27.328 39.488L512 189.184z" fill="#666666" p-id="3098"></path><path d="M168 384v480a24 24 0 1 0 48 0V384a24 24 0 0 0-48 0zM808 384v480a24 24 0 1 0 48 0V384a24 24 0 1 0-48 0zM352 536h320a24 24 0 1 0 0-48H352a24 24 0 1 0 0 48zM352 632h320a24 24 0 1 0 0-48H352a24 24 0 1 0 0 48zM352 728h320a24 24 0 1 0 0-48H352a24 24 0 1 0 0 48zM352 824h320a24 24 0 1 0 0-48H352a24 24 0 1 0 0 48z" fill="#666666" p-id="3099"></path></svg>