<?xml version="1.0" standalone="no"?><!DOCTYPE svg PUBLIC "-//W3C//DTD SVG 1.1//EN" "http://www.w3.org/Graphics/SVG/1.1/DTD/svg11.dtd"><svg t="1577772795102" class="icon" viewBox="0 0 1024 1024" version="1.1" xmlns="http://www.w3.org/2000/svg" p-id="2171" xmlns:xlink="http://www.w3.org/1999/xlink" width="200" height="200"><defs><style type="text/css"></style></defs><path d="M655.086933 639.1808a170.666667 170.666667 0 1 0-49.902933 49.937067l51.473067 51.5072a35.293867 35.293867 0 0 0 49.698133-0.238934 35.054933 35.054933 0 0 0 0.238933-49.698133l-51.5072-51.5072z m-50.176-49.9712c-2.56-1.706667-3.310933 0.9216-2.9696 5.9392a102.877867 102.877867 0 0 1-40.618666 40.7552c-5.256533-0.375467-8.021333 0.341333-6.109867 3.072a102.4 102.4 0 1 1 49.698133-49.7664zM204.8 443.8016c0-37.717333 24.439467-86.493867 54.749867-108.782933C259.549867 335.018667 477.866667 170.666667 512 170.666667s252.791467 164.590933 252.791467 164.590933c30.037333 22.186667 54.408533 70.724267 54.408533 108.544v307.029333A68.232533 68.232533 0 0 1 751.104 819.2H272.896A68.164267 68.164267 0 0 1 204.8 750.830933v-306.9952z" fill="#334356" p-id="2172"></path></svg>