<?xml version="1.0" standalone="no"?><!DOCTYPE svg PUBLIC "-//W3C//DTD SVG 1.1//EN" "http://www.w3.org/Graphics/SVG/1.1/DTD/svg11.dtd"><svg t="1577688040234" class="icon" viewBox="0 0 1024 1024" version="1.1" xmlns="http://www.w3.org/2000/svg" p-id="3627" xmlns:xlink="http://www.w3.org/1999/xlink" width="200" height="200"><defs><style type="text/css"></style></defs><path d="M938.432 322.176c10.816 18.368 16.448 38.912 17.088 61.696v441.856c-1.152 36.16-13.696 66.176-37.632 90.112-23.936 23.936-53.952 36.48-90.112 37.632H187.2c-36.16-1.152-66.24-13.696-90.112-37.632-23.936-23.936-36.48-53.952-37.632-90.112V383.872c0-22.72 5.824-43.328 17.472-61.696 11.648-18.368 27.136-33.984 46.4-46.784l320.256-198.656c19.84-12.8 42.112-19.264 66.944-19.264 24.768 0 47.104 6.4 66.944 19.264l320.256 198.656c16.32 12.8 29.888 28.416 40.704 46.784z m-226.176 375.36c8.192-8.448 12.224-19.264 12.224-32.384s-4.096-23.744-12.224-31.936c-8.192-8.192-18.944-12.224-32.384-12.224H341.248c-9.92 0-18.112 2.496-24.512 7.424-6.4 4.992-11.072 10.944-14.016 17.92-6.4 9.92-8.64 19.264-6.592 28.032a46.464 46.464 0 0 0 12.672 22.72l109.376 134.72c2.944 3.52 7.296 6.4 13.12 8.768 5.824 2.304 11.968 3.52 18.368 3.52s12.544-1.152 18.368-3.52c5.824-2.304 10.496-5.248 14.016-8.768 9.92-9.92 15.744-20.544 17.472-31.936s-2.048-22.016-11.392-31.936l-50.752-57.728h242.368c13.504 0.064 24.32-4.16 32.512-12.672zM308.864 467.008c-8.192 8.192-12.224 18.816-12.224 31.936s4.096 23.744 12.224 31.936c8.192 8.192 18.944 12.544 32.384 13.12h338.624c9.92-0.576 18.048-3.328 24.512-8.32 6.4-4.928 11.072-10.624 14.016-17.088 3.52-9.92 4.928-19.392 4.352-28.416-0.576-9.024-4.096-16.768-10.496-23.168L596.736 333.12c-9.92-9.92-20.544-14.848-31.936-14.848s-22.016 4.992-31.936 14.848c-9.344 6.976-14.272 16.768-14.848 29.312-0.576 12.544 2.304 24.064 8.768 34.56l50.752 56.896H341.248c-13.44 0.576-24.256 4.928-32.384 13.12z" p-id="3628"></path></svg>