<?xml version="1.0" standalone="no"?><!DOCTYPE svg PUBLIC "-//W3C//DTD SVG 1.1//EN" "http://www.w3.org/Graphics/SVG/1.1/DTD/svg11.dtd"><svg t="1577772892862" class="icon" viewBox="0 0 1024 1024" version="1.1" xmlns="http://www.w3.org/2000/svg" p-id="2977" xmlns:xlink="http://www.w3.org/1999/xlink" width="200" height="200"><defs><style type="text/css"></style></defs><path d="M702.26304 641.621333a64 64 0 1 0 0 128.042667 64 64 0 0 0 0-128.042667" p-id="2978"></path><path d="M702.220373 812.288a106.794667 106.794667 0 0 1-106.666666-106.666667c0-58.794667 47.829333-106.666667 106.666666-106.666666 58.88 0 106.666667 47.872 106.666667 106.666666s-47.786667 106.666667-106.666667 106.666667m0-256c-82.346667 0-149.333333 66.986667-149.333333 149.333333s66.986667 149.333333 149.333333 149.333334 149.333333-66.986667 149.333334-149.333334-66.986667-149.333333-149.333334-149.333333" p-id="2979"></path><path d="M492.47104 811.306667H273.761707c-31.744 0-57.6-25.685333-57.6-57.173334V434.261333L490.67904 176.597333l326.741333 306.773334a21.290667 21.290667 0 0 0 30.122667-1.024 21.290667 21.290667 0 0 0-0.938667-30.165334L507.19104 133.589333A21.162667 21.162667 0 0 0 490.67904 128.085333a21.248 21.248 0 0 0-16.512 5.546667L134.753707 452.181333a21.290667 21.290667 0 0 0 14.592 36.906667 21.290667 21.290667 0 0 0 14.592-5.76l9.557333-8.96v279.722667a100.181333 100.181333 0 0 0 100.266667 99.882666h218.709333a21.333333 21.333333 0 0 0 0-42.666666" p-id="2980"></path><path d="M635.95904 501.930667l10.581333 35.584a21.333333 21.333333 0 0 0 40.96-12.202667l-25.386666-85.205333a21.333333 21.333333 0 0 0-26.581334-14.336l-85.162666 25.344a21.333333 21.333333 0 1 0 12.202666 40.874666l36.053334-10.709333-83.072 136.064-66.304-131.114667c-0.384-0.768-1.024-1.28-1.493334-1.92a19.456 19.456 0 0 0-6.144-6.101333c-0.64-0.426667-1.066667-1.066667-1.706666-1.408-0.512-0.213333-1.024-0.213333-1.493334-0.426667a22.869333 22.869333 0 0 0-4.352-1.194666c-1.28-0.213333-2.56-0.469333-3.84-0.469334s-2.56 0.256-3.968 0.512a20.992 20.992 0 0 0-4.181333 1.152c-0.426667 0.213333-0.981333 0.170667-1.493333 0.426667-0.725333 0.384-1.152 1.024-1.834667 1.450667a23.082667 23.082667 0 0 0-3.413333 2.688 20.565333 20.565333 0 0 0-2.688 3.413333c-0.426667 0.682667-1.109333 1.152-1.450667 1.877333l-87.04 172.373334a21.333333 21.333333 0 1 0 38.016 19.328l68.053333-134.826667 64.554667 127.701333c0.170667 0.384 0.597333 0.512 0.853333 0.853334a20.650667 20.650667 0 0 0 7.082667 7.765333 21.504 21.504 0 0 0 20.736 0.810667c0.128-0.085333 0.170667-0.213333 0.298667-0.256 0.554667-0.298667 0.896-0.768 1.408-1.109334a20.48 20.48 0 0 0 5.973333-5.717333c0.213333-0.341333 0.64-0.469333 0.896-0.853333l103.936-170.368z" p-id="2981"></path></svg>