<?xml version="1.0" standalone="no"?><!DOCTYPE svg PUBLIC "-//W3C//DTD SVG 1.1//EN" "http://www.w3.org/Graphics/SVG/1.1/DTD/svg11.dtd"><svg t="1575260910501" class="icon" viewBox="0 0 1024 1024" version="1.1" xmlns="http://www.w3.org/2000/svg" p-id="2311" xmlns:xlink="http://www.w3.org/1999/xlink" width="200" height="200"><defs><style type="text/css"></style></defs><path d="M532.53461333 654.72284445h98.31856356a14.56355555 14.56355555 0 0 0 14.53442844-14.49073778v-11.79648a14.56355555 14.56355555 0 0 0-14.53442844-14.49073778H393.16138667a14.56355555 14.56355555 0 0 0-14.53442845 14.49073778v11.79648a14.56355555 14.56355555 0 0 0 14.53442845 14.49073778h98.33312711v81.5559111h-98.33312711a14.56355555 14.56355555 0 0 0-14.53442845 14.49073778v11.79648a14.56355555 14.56355555 0 0 0 14.53442845 14.49073778h98.33312711v107.71205689c0 8.06820978 6.52447289 14.62180978 14.57811911 14.62180978h11.88386133a14.53442845 14.53442845 0 0 0 14.57811911-14.62180978V777.05671111h98.33312712a14.56355555 14.56355555 0 0 0 14.53442844-14.49073778v-11.79648a14.56355555 14.56355555 0 0 0-14.53442844-14.49073778H532.53461333v-81.5559111zM373.35495111 317.56196978c-0.07281778-8.67987911-3.29136355-19.61710933-12.69942044-32.94276267-28.573696-40.48668445-120.061952-147.41230933-90.046464-176.90350933 30.015488-29.47663645 106.02268445 42.97705245 136.02360888 13.500416C436.66272711 91.72491378 441.45413689 2.27555555 476.26103467 2.27555555s69.61379555 118.94055822 94.51747555 105.44014223c24.88911645-13.48585245 183.93770667-71.46336711 96.92046223 47.47719111-41.71002311 57.01632-44.62273422 88.00756622-44.62273423 128.96028444 0 7.98082845 0.37865245 14.41792 1.41266489 19.95207112-125.042688 34.35542755-204.70533689 27.02995911-251.11938844 13.45672533z m283.98933334 28.41349689c8.82551467 7.13614222 19.80643555 15.78689422 33.46705066 27.08821333 52.79288889 43.71979378 300.15488 176.91807289 270.12482844 412.78941867C930.94980267 1021.72444445 737.29820445 1021.72444445 690.84046222 1021.72444445H420.70107022C197.820416 1021.72444445 60.52977778 970.752 60.52977778 756.37646222c0-190.72432355 237.51702755-368.77835378 289.96039111-405.76978489 106.16832 60.75915378 265.158656 10.36925155 306.88324266-4.63121066zM421.74964622 542.83104711l51.43847823 51.43847822c5.82542222 5.82542222 14.942208 5.70891378 20.63655822 0l8.388608-8.388608a14.51986489 14.51986489 0 0 0 0-20.63655822l-51.43847822-51.43847822a14.49073778 14.49073778 0 0 0-20.63655823 0l-8.40317155 8.388608a14.51986489 14.51986489 0 0 0 0.01456355 20.63655822z m154.03872711-29.02516622l-51.42391466 51.43847822a14.49073778 14.49073778 0 0 0-0.01456356 20.63655822l8.388608 8.40317156a14.51986489 14.51986489 0 0 0 20.63655822-0.01456356l51.43847822-51.43847822c5.82542222-5.82542222 5.70891378-14.942208 0-20.63655822l-8.388608-8.40317156a14.51986489 14.51986489 0 0 0-20.63655822 0.01456356z" p-id="2312"></path></svg>