<?xml version="1.0" standalone="no"?><!DOCTYPE svg PUBLIC "-//W3C//DTD SVG 1.1//EN" "http://www.w3.org/Graphics/SVG/1.1/DTD/svg11.dtd"><svg t="1574656464947" class="icon" viewBox="0 0 1024 1024" version="1.1" xmlns="http://www.w3.org/2000/svg" p-id="5888" xmlns:xlink="http://www.w3.org/1999/xlink" width="200" height="200"><defs><style type="text/css"></style></defs><path d="M511.8 465.1c-109.7 0-198.9-89.2-198.9-198.9S402.2 67.3 511.8 67.3c109.7 0 198.9 89.2 198.9 198.9s-89.2 198.9-198.9 198.9z m0-333.8c-74.4 0-134.9 60.5-134.9 134.9s60.5 134.9 134.9 134.9 134.9-60.5 134.9-134.9-60.5-134.9-134.9-134.9zM97.8 956.1c-17.7 0-32-14.3-32-32 0-60.4 11.8-118.9 35.2-174.1 22.5-53.3 54.8-101.1 95.8-142.2 41.1-41.1 88.9-73.3 142.2-95.8 55.2-23.3 113.7-35.2 174.1-35.2 71.2 0 142.1 17.2 205 49.7 15.7 8.1 21.9 27.4 13.7 43.1-8.1 15.7-27.4 21.9-43.1 13.7-54.7-28.2-113.8-42.5-175.7-42.5-211.3 0-383.2 171.9-383.2 383.2 0 17.7-14.4 32.1-32 32.1zM679.6 957c-8.2 0-16.4-3.1-22.6-9.4-12.5-12.5-12.5-32.8 0-45.3l224.8-224.8-36.5-36.5-224.9 224.8c-12.5 12.5-32.8 12.5-45.3 0s-12.5-32.8 0-45.3l247.4-247.4c12.5-12.5 32.8-12.5 45.3 0l81.8 81.8c12.5 12.5 12.5 32.8 0 45.3L702.2 947.6c-6.2 6.3-14.4 9.4-22.6 9.4z" p-id="5889"></path><path d="M673.9 960.2h-79.4c-17.7 0-32-14.3-32-32v-79.4c0-17.7 14.3-32 32-32s32 14.3 32 32v47.4h47.4c17.7 0 32 14.3 32 32s-14.3 32-32 32zM863.1 773.6c-8.2 0-16.4-3.1-22.6-9.4l-81.8-81.8c-12.5-12.5-12.5-32.8 0-45.3s32.8-12.5 45.3 0l81.8 81.8c12.5 12.5 12.5 32.8 0 45.3-6.4 6.2-14.6 9.4-22.7 9.4z" p-id="5890"></path></svg>