<?xml version="1.0" standalone="no"?><!DOCTYPE svg PUBLIC "-//W3C//DTD SVG 1.1//EN" "http://www.w3.org/Graphics/SVG/1.1/DTD/svg11.dtd"><svg t="1574656771023" class="icon" viewBox="0 0 1024 1024" version="1.1" xmlns="http://www.w3.org/2000/svg" p-id="19390" xmlns:xlink="http://www.w3.org/1999/xlink" width="200" height="200"><defs><style type="text/css"></style></defs><path d="M673.1776 450.3552c11.0592 4.7104 13.4144 13.4144 7.0656 26.112C670.8224 487.5264 662.1184 489.1648 654.2336 481.1776c-66.3552-42.7008-139.0592-64-218.112-64-110.592 0-204.5952 38.8096-282.112 116.1216C76.5952 610.7136 37.888 704.8192 37.888 815.4112c0 12.6976-6.3488 18.944-18.944 18.944S0 828.1088 0 815.4112c0-102.7072 31.6416-193.536 94.8224-272.5888C158.0032 463.7696 238.592 413.2864 336.5888 391.0656c-72.704-39.424-109.056-100.352-109.056-182.4768 0-58.4704 20.1728-107.8272 60.416-148.1728C328.2944 20.1728 377.6512 0 436.1216 0s107.8272 20.1728 148.1728 60.416c40.2432 40.3456 60.416 89.7024 60.416 148.1728 0 82.1248-36.352 143.0528-109.056 182.4768C586.24 403.7632 632.1152 423.5264 673.1776 450.3552zM315.2896 329.5232c33.1776 33.1776 73.5232 49.7664 120.9344 49.7664 47.4112 0 87.6544-16.5888 120.9344-49.7664C590.2336 296.2432 606.8224 256 606.8224 208.5888c0-47.4112-16.5888-87.6544-49.7664-120.9344C523.8784 54.4768 483.5328 37.888 436.1216 37.888c-47.4112 0-87.6544 16.5888-120.9344 49.7664C282.112 120.9344 265.5232 161.1776 265.5232 208.5888 265.5232 256 282.112 296.2432 315.2896 329.5232zM1005.056 758.4768C1017.6512 758.4768 1024 764.8256 1024 777.5232c0 12.6976-6.3488 18.944-18.944 18.944L796.4672 796.4672l0 208.5888C796.4672 1017.7536 790.1184 1024 777.5232 1024c-12.5952 0-18.944-6.2464-18.944-18.944L758.5792 796.4672 549.888 796.4672c-12.5952 0-18.944-6.2464-18.944-18.944 0-12.5952 6.3488-18.944 18.944-18.944l208.5888 0L758.4768 549.888c0-12.5952 6.3488-18.944 18.944-18.944 12.5952 0 18.944 6.3488 18.944 18.944l0 208.5888L1005.056 758.4768z" p-id="19391"></path></svg>