<?xml version="1.0" standalone="no"?><!DOCTYPE svg PUBLIC "-//W3C//DTD SVG 1.1//EN" "http://www.w3.org/Graphics/SVG/1.1/DTD/svg11.dtd"><svg t="1574656404471" class="icon" viewBox="0 0 1024 1024" version="1.1" xmlns="http://www.w3.org/2000/svg" p-id="4977" xmlns:xlink="http://www.w3.org/1999/xlink" width="200" height="200"><defs><style type="text/css"></style></defs><path d="M730.614 612.961c-27.79 14.626-52.036 35.076-71.115 59.728C615.725 648.664 565.459 635 512 635c-169.551 0-307 137.449-307 307 0 24.3-19.7 44-44 44s-44-19.7-44-44c0-163.047 98.787-303.02 239.774-363.332C279.812 528.088 229 440.978 229 342c0-156.297 126.703-283 283-283s283 126.703 283 283c0 98.978-50.812 186.088-127.774 236.668a394.09 394.09 0 0 1 63.388 34.293zM512 537c107.696 0 195-87.304 195-195s-87.304-195-195-195-195 87.304-195 195 87.304 195 195 195z m271.113 312.8h-91.888c-24.3 0-44-19.699-44-44 0-24.3 19.7-44 44-44h91.888v-91.887c0-24.3 19.7-44 44-44s44 19.7 44 44v91.888H963c24.3 0 44 19.7 44 44s-19.7 44-44 44h-91.887v91.887c0 24.3-19.7 44-44 44s-44-19.7-44-44v-91.887z" p-id="4978"></path></svg>