<?xml version="1.0" standalone="no"?><!DOCTYPE svg PUBLIC "-//W3C//DTD SVG 1.1//EN" "http://www.w3.org/Graphics/SVG/1.1/DTD/svg11.dtd"><svg t="1574656798967" class="icon" viewBox="0 0 1024 1024" version="1.1" xmlns="http://www.w3.org/2000/svg" p-id="19508" xmlns:xlink="http://www.w3.org/1999/xlink" width="200" height="200"><defs><style type="text/css"></style></defs><path d="M772.7104 538.112c7.8848 7.9872 7.0656 16.5888-2.3552 26.112C757.76 573.6448 749.056 572.8256 744.3456 561.7664 665.2928 465.408 562.5856 417.1776 436.1216 417.1776c-110.592 0-204.5952 38.8096-282.112 116.1216C76.5952 610.7136 37.888 704.8192 37.888 815.4112c0 12.6976-6.3488 18.944-18.944 18.944S0 828.1088 0 815.4112c0-102.7072 31.6416-193.536 94.8224-272.5888C158.0032 463.7696 238.592 413.2864 336.5888 391.0656c-72.704-39.424-109.056-100.352-109.056-182.4768 0-58.4704 20.1728-107.8272 60.416-148.1728C328.2944 20.1728 377.6512 0 436.1216 0s107.8272 20.1728 148.1728 60.416c40.3456 40.3456 60.416 89.7024 60.416 148.1728 0 82.1248-35.5328 143.0528-106.7008 182.4768C631.296 413.2864 709.5296 462.2336 772.7104 538.112zM315.2896 329.5232c33.1776 33.1776 73.5232 49.7664 120.9344 49.7664 47.4112 0 87.6544-16.5888 120.9344-49.7664C590.2336 296.2432 606.8224 256 606.8224 208.5888c0-47.4112-16.5888-87.6544-49.7664-120.9344C523.8784 54.4768 483.5328 37.888 436.1216 37.888c-47.4112 0-87.6544 16.5888-120.9344 49.7664C282.112 120.9344 265.5232 161.1776 265.5232 208.5888 265.5232 256 282.112 296.2432 315.2896 329.5232zM1009.7664 545.1776C1019.2896 554.7008 1024 566.1696 1024 579.584c0 13.4144-4.7104 24.064-14.2336 31.9488L976.5888 644.7104 687.4112 933.888 680.3456 941.056 675.5328 945.7664 521.5232 1021.6448C518.3488 1023.1808 515.1744 1024 512 1024c-3.1744 0-7.8848-1.536-14.2336-4.7104C493.056 1011.4048 492.2368 1003.52 495.4112 995.5328l75.8784-154.112c1.6384-1.536 2.3552-3.1744 2.3552-4.7104 0-1.536 0.8192-2.3552 2.3552-2.3552l7.0656-4.7104L583.0656 827.2896l286.8224-289.1776 2.3552 0L905.5232 504.832c22.1184-20.48 44.2368-19.7632 66.3552 2.3552L1009.7664 545.1776zM554.7008 962.3552l90.112-45.056-45.056-45.056L554.7008 962.3552zM936.3456 630.4768 884.1216 578.3552 623.4112 841.5232l52.1216 52.1216L936.3456 630.4768zM983.7568 585.5232c3.1744-4.7104 3.1744-8.6016 0-11.8784L943.4112 533.2992C941.8752 531.7632 940.2368 530.944 938.7008 530.944c-3.1744 0-5.5296 0.8192-7.168 2.3552L912.5888 552.2432l49.7664 52.1216L983.7568 585.5232z" p-id="19509"></path></svg>